<svg width="1272" height="798" viewBox="0 0 1272 798" fill="none" xmlns="http://www.w3.org/2000/svg">
<path d="M781 339.431V1H851.865L919 56.5707V394H846.27L781 339.431Z" fill="white" stroke="white"/>
<path d="M1271 404H1011.4L998 426.056V554.884L1065.02 651.63H1271V592.981L1242.08 551.375H1096.41L1075.24 522.802V509.268H1255.48L1271 479.191V404Z" fill="white"/>
<path d="M1040.33 651.63H998V747.875L1031.51 797H1271V693.236L1065.02 689.727L1040.33 651.63Z" fill="white"/>
<path d="M1271 404H1011.4L998 426.056V554.884L1065.02 651.63H1271V592.981L1242.08 551.375H1096.41L1075.24 522.802V509.268H1255.48L1271 479.191V404Z" stroke="white"/>
<path d="M1040.33 651.63H998V747.875L1031.51 797H1271V693.236L1065.02 689.727L1040.33 651.63Z" stroke="white"/>
<path d="M1 220.279V394H105.775V254.823L247.146 110.639H278.729V394H382V1H212.054L1 220.279Z" fill="white" stroke="white"/>
<path d="M266 623V796.5H370.5V657.5L511.5 513.5H543V796.5H646V404H476.5L266 623Z" fill="white" stroke="white"/>
<path d="M392 394V1H493V134.481H643V52.6061L685.5 1H771V75.928L715.5 134.481H643L771 255.557V394H667V303.193L602.5 235.708H493V394H392Z" fill="white"/>
<path d="M643 134.481H493V1H392V394H493V235.708H602.5L667 303.193V394H771V255.557L643 134.481ZM643 134.481V52.6061L685.5 1H771V75.928L715.5 134.481H643Z" stroke="white"/>
<path d="M929 340.635V1H1002.76L1067.81 52.3401V285.345H1271V390H996.729L929 340.635Z" fill="white" stroke="white"/>
<path d="M1 746.254V404H56L104.5 455.736V690.538H256V796H51.5L1 746.254Z" fill="white" stroke="white"/>
<path d="M656 796.5V403H921.856L988 474V543.5L950.021 585L885.157 510.5H746.468V548H875.342L988 680V796.5H656Z" fill="white" stroke="white"/>
<path d="M747.748 689V652.5H833.522L860.406 689H747.748Z" fill="black" stroke="white"/>
</svg>
